<svg width="14" height="14" viewBox="0 0 14 14" fill="none" xmlns="http://www.w3.org/2000/svg">
<g clip-path="url(#clip0_205_349)">
<path d="M7 13.5C10.5899 13.5 13.5 10.5899 13.5 7C13.5 3.41015 10.5899 0.5 7 0.5C3.41015 0.5 0.5 3.41015 0.5 7C0.5 10.5899 3.41015 13.5 7 13.5Z" fill="#D80027"/>
<path d="M4.05723 4.45508L4.61836 6.18164H6.43379L4.96621 7.25059L5.52734 8.97715L4.05723 7.91074L2.58711 8.97715L3.15078 7.25059L1.68066 6.18164H3.49609L4.05723 4.45508Z" fill="#FFDA44"/>
<path d="M8.20604 10.567L7.77694 10.0389L7.14218 10.2852L7.51034 9.71387L7.08124 9.1832L7.73886 9.3584L8.10956 8.78711L8.14511 9.46758L8.80526 9.64277L8.16796 9.88652L8.20604 10.567Z" fill="#FFDA44"/>
<path d="M9.05917 9.01816L9.26229 8.36816L8.70624 7.97461L9.38671 7.96445L9.58729 7.31445L9.80819 7.95937L10.4887 7.95176L9.94276 8.35801L10.1611 9.00293L9.60507 8.60938L9.05917 9.01816Z" fill="#FFDA44"/>
<path d="M10.2094 5.2707L9.90978 5.88262L10.3973 6.35742L9.72443 6.26094L9.42482 6.87031L9.30802 6.2L8.63263 6.10352L9.23693 5.78613L9.12013 5.11328L9.60763 5.58809L10.2094 5.2707Z" fill="#FFDA44"/>
<path d="M8.2238 3.41699L8.17302 4.09492L8.80525 4.35137L8.14255 4.51387L8.09431 5.19434L7.7363 4.61543L7.07361 4.77793L7.51287 4.25742L7.15232 3.68105L7.78455 3.9375L8.2238 3.41699Z" fill="#FFDA44"/>
</g>
<defs>
<clipPath id="clip0_205_349">
<rect width="13" height="13" fill="white" transform="translate(0.5 0.5)"/>
</clipPath>
</defs>
</svg>
