<svg width="32" height="32" viewBox="0 0 32 32" fill="none" xmlns="http://www.w3.org/2000/svg">
<path d="M26.646 7.06333C27.118 6.59131 27.118 5.82603 26.646 5.35401C26.174 4.882 25.4087 4.882 24.9367 5.35401L16 14.2907L7.06333 5.35401C6.59131 4.882 5.82603 4.882 5.35401 5.35401C4.882 5.82603 4.882 6.59131 5.35401 7.06333L14.2907 16L5.35401 24.9367C4.882 25.4087 4.882 26.174 5.35401 26.646C5.82603 27.118 6.59131 27.118 7.06333 26.646L16 17.7093L24.9367 26.646C25.4087 27.118 26.174 27.118 26.646 26.646C27.118 26.174 27.118 25.4087 26.646 24.9367L17.7093 16L26.646 7.06333Z" fill="white"/>
</svg>
