<svg width="10" height="11" viewBox="0 0 10 11" fill="none" xmlns="http://www.w3.org/2000/svg">
<path d="M5.20494 0.986328C4.93619 0.986328 4.69119 1.14226 4.20203 1.45273L1.52245 3.15234C1.06105 3.43926 0.676539 3.85502 0.407701 4.35769C0.138863 4.86036 -0.00479665 5.43217 -0.00878906 6.01545L-0.00878906 6.12368C-0.00476699 6.70621 0.138562 7.2773 0.406779 7.7795C0.674996 8.2817 1.05864 8.6973 1.51912 8.98449L3.19536 10.0498C4.17619 10.6736 4.66661 10.9863 5.20536 10.9863C5.74369 10.9868 6.23452 10.6754 7.21577 10.0517L8.98701 8.92671C9.47742 8.61485 9.72201 8.45893 9.85659 8.20256C9.99117 7.94574 9.99159 7.63389 9.99117 7.01018V5.80403C9.99126 5.72035 9.97134 5.63812 9.93342 5.56559C9.8955 5.49306 9.84091 5.43279 9.77513 5.39083C9.70936 5.34887 9.63471 5.3267 9.55868 5.32653C9.48266 5.32637 9.40793 5.34823 9.34201 5.3899L5.70535 7.69396C5.46077 7.84851 5.33869 7.92648 5.20494 7.92648C5.07036 7.92648 4.94827 7.84943 4.70328 7.69442L2.24329 6.13836C2.11954 6.05993 2.05745 6.02095 2.00787 6.01407C1.95311 6.00635 1.89756 6.0187 1.84981 6.0492C1.80206 6.07971 1.76477 6.12667 1.7437 6.18284C1.72495 6.23375 1.72495 6.31217 1.72579 6.46947C1.72662 6.58504 1.72579 6.64283 1.7362 6.69603C1.75829 6.81481 1.81495 6.92212 1.89745 7.00192C1.93454 7.03723 1.97995 7.06613 2.07079 7.12391L4.70203 8.79784C4.94744 8.95377 5.07036 9.03173 5.20494 9.03173C5.33994 9.03173 5.46202 8.95377 5.70744 8.7983L8.93243 6.74877C9.01659 6.69557 9.05826 6.66989 9.08951 6.68915C9.12076 6.70933 9.12076 6.76253 9.12076 6.86892V7.41605C9.12076 7.57197 9.12117 7.64994 9.08742 7.71368C9.05409 7.77789 8.99284 7.81641 8.86993 7.89438L6.21077 9.58435C5.71994 9.89621 5.47452 10.0521 5.20536 10.0521C4.93619 10.0521 4.69036 9.89621 4.20036 9.58344L1.71287 8.00032L1.69495 7.98885C1.43877 7.82372 1.22603 7.58805 1.07766 7.30501C0.929283 7.02197 0.850381 6.70131 0.848708 6.37454V5.84897C0.848708 5.48163 1.02662 5.14225 1.31537 4.95743C1.44084 4.87745 1.58324 4.83529 1.72823 4.83521C1.87322 4.83513 2.01567 4.87713 2.1412 4.95698L4.20203 6.26768C4.69119 6.57908 4.93619 6.73501 5.20494 6.73547C5.47369 6.73547 5.71869 6.57954 6.2091 6.26906L9.32659 4.29428C9.39583 4.25041 9.45333 4.18723 9.49332 4.11111C9.53331 4.03498 9.55436 3.9486 9.55436 3.86067C9.55436 3.77274 9.53331 3.68636 9.49332 3.61023C9.45333 3.53411 9.39583 3.47093 9.32659 3.42705L6.20785 1.4509C5.71827 1.14134 5.47369 0.986328 5.20536 0.986328H5.20494Z" fill="#EEEEEE"/>
</svg>
