<svg width="14" height="14" viewBox="0 0 14 14" fill="none" xmlns="http://www.w3.org/2000/svg">
<g clip-path="url(#clip0_205_288)">
<path d="M7 13.5C10.5899 13.5 13.5 10.5899 13.5 7C13.5 3.41015 10.5899 0.5 7 0.5C3.41015 0.5 0.5 3.41015 0.5 7C0.5 10.5899 3.41015 13.5 7 13.5Z" fill="#F0F0F0"/>
<path d="M9.26085 7.00012C9.26085 7.56534 8.24863 8.97838 6.99999 8.97838C5.75136 8.97838 4.73914 7.56534 4.73914 7.00012C4.73914 5.75146 5.75136 4.73926 6.99999 4.73926C8.24863 4.73926 9.26085 5.75146 9.26085 7.00012Z" fill="#D80027"/>
<path d="M9.26085 7C9.26085 8.24866 8.24863 9.26086 6.99999 9.26086C5.75136 9.26086 4.73914 8.24866 4.73914 7" fill="#0052B4"/>
<path d="M9.39624 8.99805L9.99565 8.39864L10.3953 8.79825L9.79585 9.39766L9.39624 8.99805Z" fill="black"/>
<path d="M8.39691 9.99707L8.99632 9.39766L9.39593 9.79727L8.79652 10.3967L8.39691 9.99707Z" fill="black"/>
<path d="M10.5952 10.1973L11.1946 9.59786L11.5942 9.99747L10.9948 10.5969L10.5952 10.1973Z" fill="black"/>
<path d="M9.59589 11.1963L10.1953 10.5969L10.5949 10.9965L9.9955 11.5959L9.59589 11.1963Z" fill="black"/>
<path d="M9.99567 9.59766L10.5951 8.99825L10.9947 9.39786L10.3953 9.99727L9.99567 9.59766Z" fill="black"/>
<path d="M8.99664 10.5967L9.59605 9.99727L9.99566 10.3969L9.39625 10.9963L8.99664 10.5967Z" fill="black"/>
<path d="M10.5978 5.00293L8.99935 3.4045L9.39896 3.00489L10.9974 4.60332L10.5978 5.00293Z" fill="black"/>
<path d="M8.99908 4.60352L8.39968 4.00411L8.79927 3.60451L9.39868 4.20392L8.99908 4.60352Z" fill="black"/>
<path d="M9.99811 5.60254L9.3987 5.00313L9.79829 4.60354L10.3977 5.20295L9.99811 5.60254Z" fill="black"/>
<path d="M10.1978 3.4043L9.59835 2.80489L9.99796 2.40528L10.5974 3.00469L10.1978 3.4043Z" fill="black"/>
<path d="M11.1973 4.40332L10.5979 3.80391L10.9975 3.4043L11.5969 4.00371L11.1973 4.40332Z" fill="black"/>
<path d="M2.80432 9.59668L4.40275 11.1951L4.00314 11.5947L2.40471 9.99629L2.80432 9.59668Z" fill="black"/>
<path d="M4.40265 9.99609L5.00206 10.5955L4.60246 10.9951L4.00306 10.3957L4.40265 9.99609Z" fill="black"/>
<path d="M3.40356 8.99707L4.00297 9.59648L3.60336 9.99609L3.00395 9.39668L3.40356 8.99707Z" fill="black"/>
<path d="M4.00305 8.39746L5.60148 9.99589L5.20187 10.3955L3.60344 8.79707L4.00305 8.39746Z" fill="black"/>
<path d="M4.40259 2.80371L2.80416 4.40214L2.40455 4.00253L4.00298 2.4041L4.40259 2.80371Z" fill="black"/>
<path d="M5.00195 3.40332L3.40353 5.00175L3.00392 4.60214L4.60234 3.00371L5.00195 3.40332Z" fill="black"/>
<path d="M5.60193 4.00293L4.0035 5.60136L3.60391 5.20176L5.20234 3.60334L5.60193 4.00293Z" fill="black"/>
</g>
<defs>
<clipPath id="clip0_205_288">
<rect width="13" height="13" fill="white" transform="translate(0.5 0.5)"/>
</clipPath>
</defs>
</svg>
