<svg width="44" height="44" viewBox="0 0 44 44" fill="none" xmlns="http://www.w3.org/2000/svg">
<path fill-rule="evenodd" clip-rule="evenodd" d="M32.0128 3.66309C26.7839 3.66309 22.537 7.86731 22.4713 13.08V4.17856H13.3944V13.3264C13.3944 13.8543 12.967 14.2806 12.4392 14.2806H11.4839V4.17856H2.44427V41.3227H11.4839V31.2207H12.4392C12.967 31.2207 13.3944 31.6482 13.3944 32.176V41.3227L30.8037 41.3225V32.1758C30.8037 31.6479 31.23 31.2205 31.7579 31.2205C32.2857 31.2205 32.7131 31.6479 32.7131 32.1758V41.3225H41.0467V22.747H32.1705C37.3322 22.6623 41.5554 18.4242 41.5554 13.2057C41.5554 7.93421 37.2831 3.66421 32.0128 3.66421V3.66309ZM31.8539 22.747C26.6946 22.6629 22.5295 18.4842 22.4713 13.3164C22.4621 18.3588 18.5144 21.9873 13.3234 22.5228C11.1782 22.745 7.88722 22.7507 7.88722 22.7507C7.88722 22.7507 11.1782 22.7563 13.3234 22.9774C18.4786 23.5098 22.4083 27.0937 22.4706 32.0837C22.5199 27.07 26.596 22.747 31.6169 22.747H31.8539Z" fill="white"/>
</svg>
