<svg width="32" height="32" viewBox="0 0 32 32" fill="none" xmlns="http://www.w3.org/2000/svg">
<path d="M3 5.5C3 4.67157 3.67157 4 4.5 4H27.5C28.3284 4 29 4.67157 29 5.5C29 6.32843 28.3284 7 27.5 7H4.5C3.67157 7 3 6.32843 3 5.5Z" fill="white"/>
<path d="M3 15.5C3 14.6716 3.67157 14 4.5 14H27.5C28.3284 14 29 14.6716 29 15.5C29 16.3284 28.3284 17 27.5 17H4.5C3.67157 17 3 16.3284 3 15.5Z" fill="white"/>
<path d="M4.5 24C3.67157 24 3 24.6716 3 25.5C3 26.3284 3.67157 27 4.5 27H27.5C28.3284 27 29 26.3284 29 25.5C29 24.6716 28.3284 24 27.5 24H4.5Z" fill="white"/>
</svg>
