<svg width="14" height="14" viewBox="0 0 14 14" fill="none" xmlns="http://www.w3.org/2000/svg">
<g clip-path="url(#clip0_198_603)">
<path d="M7 13.5C10.5899 13.5 13.5 10.5899 13.5 7C13.5 3.41015 10.5899 0.5 7 0.5C3.41015 0.5 0.5 3.41015 0.5 7C0.5 10.5899 3.41015 13.5 7 13.5Z" fill="#F0F0F0"/>
<path d="M6.71741 7.00035H13.5C13.5 6.41367 13.4218 5.84533 13.2761 5.30469H6.71741V7.00035Z" fill="#D80027"/>
<path d="M6.71741 3.60875H12.546C12.1481 2.95946 11.6393 2.38555 11.0462 1.91309H6.71741V3.60875Z" fill="#D80027"/>
<path d="M7.00001 13.5C8.52977 13.5 9.93582 12.9712 11.0462 12.0869H2.95386C4.06419 12.9712 5.47025 13.5 7.00001 13.5Z" fill="#D80027"/>
<path d="M1.45405 10.391H12.546C12.8654 9.86973 13.1132 9.29996 13.2761 8.69531H0.723938C0.88687 9.29996 1.13461 9.86973 1.45405 10.391Z" fill="#D80027"/>
<path d="M3.51092 1.51507H4.10326L3.55228 1.91535L3.76275 2.56304L3.21179 2.16276L2.66084 2.56304L2.84264 2.00351C2.35753 2.4076 1.93234 2.88103 1.58195 3.40855H1.77174L1.42102 3.66334C1.36638 3.75449 1.31397 3.84709 1.26375 3.94106L1.43123 4.45652L1.11877 4.2295C1.0411 4.39406 0.970057 4.56232 0.906199 4.73409L1.09071 5.30203H1.77174L1.22076 5.70231L1.43123 6.35L0.880275 5.94972L0.550248 6.18951C0.517215 6.45504 0.5 6.7255 0.5 7H7C7 3.41017 7 2.98696 7 0.5C5.71595 0.5 4.51896 0.87248 3.51092 1.51507ZM3.76275 6.35L3.21179 5.94972L2.66084 6.35L2.87131 5.70231L2.32033 5.30203H3.00136L3.21179 4.65434L3.42223 5.30203H4.10326L3.55228 5.70231L3.76275 6.35ZM3.55228 3.80883L3.76275 4.45652L3.21179 4.05624L2.66084 4.45652L2.87131 3.80883L2.32033 3.40855H3.00136L3.21179 2.76086L3.42223 3.40855H4.10326L3.55228 3.80883ZM6.09427 6.35L5.54331 5.94972L4.99236 6.35L5.20283 5.70231L4.65185 5.30203H5.33288L5.54331 4.65434L5.75375 5.30203H6.43478L5.8838 5.70231L6.09427 6.35ZM5.8838 3.80883L6.09427 4.45652L5.54331 4.05624L4.99236 4.45652L5.20283 3.80883L4.65185 3.40855H5.33288L5.54331 2.76086L5.75375 3.40855H6.43478L5.8838 3.80883ZM5.8838 1.91535L6.09427 2.56304L5.54331 2.16276L4.99236 2.56304L5.20283 1.91535L4.65185 1.51507H5.33288L5.54331 0.867377L5.75375 1.51507H6.43478L5.8838 1.91535Z" fill="#0052B4"/>
</g>
<defs>
<clipPath id="clip0_198_603">
<rect width="13" height="13" fill="white" transform="translate(0.5 0.5)"/>
</clipPath>
</defs>
</svg>
